# xmcd
#
# Track frame offsets: 
#        150
#        15597
#        34045
#        53772
#        67972
#        87563
#        101084
#        122464
#        135523
#        149555
#        172155
#        186829
#
# Disc length: 2706 seconds
#
# Revision: 0
# Processed by: cddbd v1.4PL0 Copyright (c) Steve Scherf et al.
# Submitted via: ExactAudioCopy v0.90b2
#
DISCID=a60a900c
DTITLE=Stefan George and Song Tower - City of Rocks
DYEAR=1998
DGENRE=Blues
TTITLE0=Visitor's Day
TTITLE1=Queen of Sixth Avenue
TTITLE2=Pretty Wild Thing 
TTITLE3=Rubio's Women 
TTITLE4=Diamond Black 
TTITLE5=City of Rocks 
TTITLE6=Big Shoulders 
TTITLE7=Parking Lot Joe
TTITLE8=Midnight Minus One
TTITLE9=Crime Doesn't Pay
TTITLE10=The Lights of Lordsburg 
TTITLE11=Sunset Road 
EXTD=
EXTT0=
EXTT1=
EXTT2=
EXTT3=
EXTT4=
EXTT5=
EXTT6=
EXTT7=
EXTT8=
EXTT9=
EXTT10=
EXTT11=
PLAYORDER=
